# xmcd CD database file
# Copyright (C) 1993-1998 Ti Kan
#
# Track frame offsets:
#	183
#	18435
#	45235
#	78115
#	127793
#	158653
#	212243
#	230565
#	245358
#	279183
#	298970
#
# Disc length: 4354 seconds
#
# Revision: 1
# Processed by: cddbd v1.4b41PL1 Copyright (c) Steve Scherf et al.
# Submitted via: CDValet v3.31 - Copyright (c) 1997 Greg Leichner
#
DISCID=8811000b
DTITLE=Daniel Wayenberg and Louis van Dijk - Live in Amsterdam
DYEAR=1900
DGENRE=
TTITLE0=My funny valentine
TTITLE1=Impromptu No. 3 Op. 51
TTITLE2=Blue Daniel and Blue Lou
TTITLE3=Frand rondo in a for quatremains
TTITLE4=Selma is waltzing around
TTITLE5=All the things you are
TTITLE6=Prelude en fuga in G
TTITLE7=Strike up the band
TTITLE8=Valse des Lilas
TTITLE9=Gone with the wind
TTITLE10=Take five
EXTD=
EXTT0=
EXTT1=
EXTT2=
EXTT3=
EXTT4=
EXTT5=
EXTT6=
EXTT7=
EXTT8=
EXTT9=
EXTT10=
PLAYORDER=
